<?xml version="1.0" standalone="no"?>
<!DOCTYPE svg PUBLIC "-//W3C//DTD SVG 20010904//EN"
 "http://www.w3.org/TR/2001/REC-SVG-20010904/DTD/svg10.dtd">
<svg version="1.0" xmlns="http://www.w3.org/2000/svg"
 width="773.000000pt" height="773.000000pt" viewBox="0 0 773.000000 773.000000"
 preserveAspectRatio="xMidYMid meet">
<metadata>
Created by potrace 1.14, written by Peter Selinger 2001-2017
</metadata>
<g transform="translate(0.000000,773.000000) scale(0.100000,-0.100000)"
fill="#000000" stroke="none">
<path d="M3546 7411 c-15 -33 -17 -52 -12 -118 4 -43 13 -98 21 -123 7 -25 16
-88 20 -140 3 -52 11 -131 17 -175 6 -44 11 -172 12 -285 1 -177 -2 -218 -20
-296 -12 -50 -29 -102 -37 -115 -8 -13 -18 -38 -22 -56 -3 -17 -13 -34 -21
-37 -8 -3 -14 -12 -14 -20 0 -37 -110 -138 -180 -166 -19 -7 -39 -17 -44 -22
-6 -4 -47 -8 -92 -8 -60 0 -85 4 -94 15 -21 25 -56 17 -89 -20 -17 -20 -31
-43 -31 -52 0 -8 -9 -30 -19 -47 -11 -17 -22 -48 -26 -68 -4 -21 -13 -42 -21
-49 -7 -6 -16 -27 -20 -48 -4 -20 -13 -44 -21 -53 -8 -9 -19 -36 -24 -60 -6
-23 -16 -50 -23 -58 -8 -8 -17 -31 -21 -50 -4 -19 -16 -46 -26 -59 -11 -13
-19 -36 -19 -51 0 -15 -8 -38 -19 -51 -10 -13 -21 -38 -25 -56 -4 -17 -16 -48
-27 -69 -10 -21 -19 -47 -19 -57 0 -11 -8 -34 -19 -51 -10 -17 -21 -50 -25
-74 -4 -24 -13 -53 -21 -65 -7 -12 -17 -47 -21 -77 -4 -30 -13 -68 -21 -83 -8
-15 -16 -67 -19 -115 -3 -48 -10 -100 -16 -117 -6 -16 -16 -145 -24 -285 -11
-220 -16 -264 -37 -324 -13 -37 -31 -72 -40 -78 -9 -5 -17 -16 -17 -24 0 -8
-8 -17 -17 -21 -10 -3 -26 -15 -35 -27 -15 -19 -27 -21 -135 -21 -108 0 -121
2 -147 23 -16 12 -35 22 -43 22 -14 0 -113 96 -113 110 0 4 -11 23 -24 43 -13
19 -27 50 -31 68 -4 19 -13 41 -20 49 -21 26 -38 222 -30 358 7 123 7 124 -21
163 -15 22 -35 39 -46 39 -23 0 -88 -50 -88 -67 0 -7 -6 -13 -14 -13 -8 0 -18
-10 -22 -22 -4 -13 -15 -29 -25 -36 -11 -7 -19 -18 -19 -24 0 -5 -11 -23 -25
-40 -14 -16 -25 -35 -25 -42 0 -6 -9 -19 -20 -29 -11 -9 -20 -25 -20 -35 0
-11 -9 -27 -20 -37 -11 -10 -20 -23 -20 -30 0 -6 -11 -26 -25 -45 -14 -19 -25
-40 -25 -47 0 -7 -9 -22 -20 -33 -11 -11 -20 -29 -20 -41 0 -11 -9 -32 -19
-45 -11 -14 -22 -42 -26 -64 -4 -21 -12 -41 -19 -43 -8 -3 -17 -23 -20 -44 -4
-21 -14 -48 -22 -60 -8 -12 -19 -46 -25 -75 -6 -29 -16 -59 -22 -66 -5 -7 -16
-43 -23 -80 -7 -37 -20 -94 -28 -127 -41 -161 -49 -210 -53 -338 -4 -106 -2
-154 11 -205 9 -37 20 -91 26 -120 5 -30 16 -68 24 -85 8 -18 17 -49 21 -71 3
-21 15 -55 26 -75 10 -20 19 -45 19 -57 0 -12 8 -32 18 -45 11 -13 22 -37 26
-53 4 -15 15 -40 24 -55 31 -46 42 -65 58 -99 8 -18 21 -35 29 -39 8 -3 15
-13 15 -23 0 -10 11 -32 25 -48 14 -17 25 -35 25 -41 0 -5 9 -15 20 -21 11 -6
20 -16 20 -23 0 -7 10 -24 23 -39 12 -15 37 -48 56 -73 18 -25 37 -45 42 -45
5 0 9 -4 9 -10 0 -12 69 -104 81 -108 5 -2 9 -9 9 -15 0 -6 9 -20 20 -32 45
-47 60 -66 75 -94 8 -17 20 -31 25 -31 6 0 10 -6 10 -14 0 -7 9 -25 20 -39 27
-34 26 -57 -2 -59 -65 -4 -89 3 -223 68 -28 13 -55 24 -62 24 -6 0 -13 7 -16
14 -3 8 -22 18 -41 21 -19 4 -40 13 -47 21 -26 32 -69 9 -69 -37 0 -21 20 -47
80 -108 44 -45 84 -81 90 -81 5 0 10 -7 10 -15 0 -8 4 -15 9 -15 4 0 21 -12
38 -27 88 -82 167 -149 188 -160 12 -7 25 -19 29 -28 3 -8 11 -15 18 -15 7 0
19 -9 26 -20 7 -11 19 -20 27 -20 8 0 18 -6 22 -14 4 -7 23 -21 41 -30 17 -9
32 -21 32 -26 0 -5 11 -12 25 -16 14 -3 25 -10 25 -15 0 -8 43 -34 126 -73 17
-8 36 -22 44 -30 7 -9 21 -16 31 -16 10 0 20 -4 24 -9 3 -5 40 -26 83 -46 42
-21 84 -41 92 -46 8 -5 26 -14 40 -20 14 -6 48 -22 75 -35 28 -13 55 -24 61
-24 5 0 27 -9 49 -20 22 -11 48 -20 60 -20 11 -1 38 -9 60 -20 22 -11 50 -19
63 -20 12 0 39 -7 60 -16 20 -8 71 -22 112 -29 41 -8 97 -19 125 -24 27 -6 92
-15 144 -20 54 -5 97 -13 99 -20 3 -8 60 -11 184 -11 149 0 183 3 192 15 8 11
47 18 141 25 72 6 144 15 160 20 17 5 62 11 100 15 39 3 104 14 145 24 41 11
99 22 129 25 30 4 66 13 80 20 14 8 46 17 71 21 25 4 58 13 74 21 15 7 44 16
65 20 20 4 53 15 73 25 21 11 45 19 55 19 10 0 35 9 56 20 20 11 43 20 49 20
7 0 36 11 63 25 28 13 56 25 63 25 8 0 79 33 158 72 189 95 219 111 235 124 8
6 25 15 39 19 14 4 33 14 42 22 18 16 68 45 111 65 15 7 27 16 27 20 0 4 19
18 41 30 23 13 53 29 66 36 13 8 27 20 30 28 3 8 11 14 17 14 23 0 105 71 115
101 8 22 7 32 -5 44 -21 20 -60 19 -146 -5 -81 -22 -117 -18 -119 14 -3 45 4
62 47 118 24 32 44 63 44 68 0 6 6 10 13 10 6 0 26 17 42 36 17 20 49 55 73
79 23 24 42 46 42 49 0 3 26 31 58 64 58 60 122 136 122 146 0 4 18 23 40 45
22 21 40 42 40 46 0 4 11 20 25 37 14 16 25 36 25 43 0 8 8 19 19 24 10 6 22
22 25 36 4 14 10 25 15 25 5 0 14 15 22 33 7 17 21 43 31 56 10 13 18 33 18
45 0 12 8 29 19 37 10 9 21 36 25 60 4 24 14 51 22 60 8 9 18 43 21 75 3 33
13 73 22 89 24 45 29 536 6 650 -9 44 -21 118 -26 165 -6 47 -17 99 -25 115
-7 17 -18 58 -23 92 -5 34 -16 74 -24 90 -8 15 -17 48 -21 73 -4 25 -13 54
-20 65 -8 11 -17 41 -21 65 -4 25 -13 55 -21 68 -8 12 -19 45 -24 74 -6 28
-16 59 -24 67 -7 9 -16 32 -20 53 -4 20 -13 39 -21 42 -8 3 -15 13 -15 23 0
10 -7 29 -15 43 -8 14 -23 44 -34 68 -11 23 -25 42 -31 42 -5 0 -10 8 -10 18
0 35 -30 63 -63 60 -46 -4 -57 -34 -57 -161 0 -77 -4 -117 -15 -135 -8 -15
-21 -44 -29 -64 -8 -21 -20 -38 -25 -38 -6 0 -11 -7 -11 -15 0 -9 -8 -18 -17
-22 -10 -3 -26 -14 -35 -24 -40 -40 -234 -33 -278 11 -11 11 -24 20 -29 20 -5
0 -13 9 -16 20 -3 11 -12 20 -19 20 -7 0 -22 34 -35 76 -27 88 -26 131 9 439
35 318 41 416 31 543 -13 153 -34 291 -49 319 -7 12 -17 46 -22 75 -6 28 -16
59 -23 67 -8 9 -19 35 -26 59 -6 23 -16 42 -21 42 -4 0 -11 13 -15 29 -3 16
-15 37 -26 47 -10 9 -19 24 -19 32 0 8 -11 27 -25 44 -14 16 -25 36 -25 43 0
8 -6 18 -13 22 -7 4 -21 21 -31 38 -24 36 -35 50 -62 78 -11 12 -23 30 -27 40
-3 9 -11 17 -17 17 -6 0 -15 11 -20 25 -5 14 -16 25 -25 25 -8 0 -15 7 -15 16
0 9 -9 18 -20 21 -11 3 -20 9 -20 13 0 10 -72 90 -139 154 -30 28 -76 72 -102
99 -26 26 -52 47 -58 47 -6 0 -11 6 -11 13 0 7 -21 29 -47 49 -27 20 -73 59
-103 87 -30 28 -67 57 -83 64 -15 6 -30 20 -33 29 -3 10 -11 18 -17 18 -7 0
-18 9 -25 20 -7 11 -17 20 -23 20 -7 0 -22 10 -34 23 -22 22 -32 29 -110 87
-22 16 -49 39 -60 50 -12 11 -24 20 -27 20 -4 0 -26 18 -50 40 -24 22 -52 43
-63 46 -11 4 -26 15 -33 25 -7 11 -17 19 -21 19 -5 0 -25 16 -46 35 -21 19
-53 41 -71 50 -19 9 -34 20 -34 26 0 5 -8 12 -17 16 -10 3 -25 12 -33 20 -31
28 -93 73 -101 73 -5 0 -24 16 -43 35 -26 26 -44 35 -68 35 -28 0 -36 -6 -52
-39z m349 -4748 c45 -4 78 -12 94 -24 13 -11 30 -19 38 -19 20 0 93 -38 130
-69 101 -82 134 -104 210 -140 22 -11 44 -29 48 -40 3 -11 35 -39 70 -63 53
-34 68 -51 86 -92 29 -70 63 -113 108 -135 28 -15 42 -31 54 -63 10 -24 17
-50 17 -57 0 -8 9 -28 20 -47 12 -18 28 -68 36 -111 48 -235 47 -251 -14 -367
-27 -50 -55 -107 -62 -126 -17 -43 -134 -227 -186 -294 -35 -44 -360 -374
-396 -402 -8 -7 -73 -22 -144 -35 -160 -30 -440 -33 -496 -6 -18 9 -62 51 -98
94 -36 43 -80 95 -99 115 -30 34 -67 83 -118 158 -9 14 -42 59 -73 100 -147
199 -244 353 -265 424 -32 105 -30 164 5 272 18 55 38 106 45 114 7 8 20 31
29 50 26 58 55 104 75 120 10 8 36 41 58 74 21 32 43 66 48 74 6 8 18 24 28
34 9 10 17 29 17 42 0 13 10 30 23 39 12 9 38 30 57 49 125 119 182 166 205
172 31 8 75 37 125 82 19 18 49 34 65 37 65 12 109 26 124 42 10 10 25 14 41
10 14 -3 57 -8 95 -12z"/>
<path d="M1920 5873 c-31 -11 -49 -36 -55 -76 -4 -22 -16 -54 -26 -71 -10 -17
-19 -38 -19 -47 0 -9 -9 -24 -20 -34 -11 -10 -20 -22 -20 -27 0 -13 -35 -57
-100 -126 -30 -31 -72 -80 -92 -107 -21 -28 -43 -57 -50 -65 -26 -30 -68 -95
-68 -107 0 -6 -9 -27 -19 -45 -11 -18 -22 -53 -26 -78 -4 -25 -12 -51 -19 -59
-7 -9 -11 -80 -12 -214 0 -197 0 -199 23 -214 24 -16 73 -11 73 7 0 6 49 61
109 123 61 62 124 131 140 152 17 22 36 47 43 55 30 34 68 96 68 110 0 9 9 23
19 32 11 9 23 33 27 52 3 20 10 36 15 36 10 0 29 66 29 103 0 15 8 40 18 54
15 24 17 58 20 263 3 267 -4 302 -58 283z"/>
</g>
</svg>
